<?xml version="1.0" standalone="no"?>
<!DOCTYPE svg PUBLIC "-//W3C//DTD SVG 20010904//EN"
 "http://www.w3.org/TR/2001/REC-SVG-20010904/DTD/svg10.dtd">
<svg version="1.0" xmlns="http://www.w3.org/2000/svg"
 width="1058.000000pt" height="1004.000000pt" viewBox="0 0 1058.000000 1004.000000"
 preserveAspectRatio="xMidYMid meet">
<g transform="translate(0.000000,1004.000000) scale(0.100000,-0.100000)"
fill="#3BB94E" stroke="none">
<path d="M2091 9942 c-157 -508 -221 -1027 -192 -1552 25 -439 82 -747 217
-1177 29 -94 56 -190 60 -212 l7 -41 -34 6 c-19 3 -101 20 -184 37 -144 30
-160 31 -400 31 -338 0 -574 -33 -751 -104 -152 -61 -447 -241 -609 -372 -95
-77 -205 -194 -205 -218 0 -31 111 -382 163 -515 258 -665 768 -1267 1379
-1631 221 -131 435 -225 718 -314 91 -29 170 -56 176 -61 6 -5 16 -62 23 -126
42 -394 147 -788 313 -1176 204 -479 487 -903 853 -1276 325 -332 646 -566
1057 -771 868 -432 1843 -539 2794 -305 939 231 1762 792 2324 1585 231 326
501 872 598 1210 96 331 130 717 118 1310 -9 466 -28 617 -111 904 -277 953
-865 1759 -1675 2295 -558 369 -1165 582 -1845 647 -133 13 -234 15 -470 11
-334 -7 -419 -14 -682 -58 -100 -17 -188 -29 -196 -27 -8 2 -85 86 -172 188
-351 410 -728 748 -1120 1006 -190 124 -306 190 -528 300 -402 199 -775 324
-1303 439 -142 31 -267 58 -276 61 -14 4 -22 -13 -47 -94z m1075 -1387 c271
-353 472 -605 483 -605 8 0 83 131 211 370 91 171 132 235 155 243 21 9 21 9
-30 -260 -75 -404 -91 -534 -75 -644 12 -83 33 -127 95 -200 25 -30 48 -64 52
-77 9 -36 -35 -90 -126 -157 -121 -88 -130 -93 -141 -75 -47 81 -134 191 -175
223 -74 56 -250 138 -628 293 l-339 139 274 11 c272 12 402 25 440 45 17 9 19
17 14 51 -18 112 -138 248 -284 322 -29 15 -89 40 -132 56 -137 51 -197 88
-168 106 7 4 56 11 110 15 115 8 138 21 138 79 0 49 -11 80 -85 240 -35 74
-66 146 -70 160 l-7 25 25 -25 c13 -14 132 -164 263 -335z m3554 -1099 c212
-8 388 -38 614 -106 532 -159 951 -375 1306 -673 153 -128 397 -376 510 -517
325 -407 536 -887 671 -1522 26 -121 32 -173 36 -333 14 -505 -58 -993 -208
-1400 -52 -141 -181 -407 -265 -546 -79 -132 -201 -303 -297 -419 -103 -124
-345 -362 -472 -463 -528 -423 -1157 -682 -1814 -747 -134 -13 -470 -13 -602
0 -216 22 -482 77 -699 145 -370 116 -787 338 -1101 586 -139 109 -443 417
-552 557 -383 498 -610 1047 -694 1677 -23 181 -23 599 1 780 137 1041 697
1917 1583 2478 144 91 458 245 613 301 69 24 253 76 410 114 255 63 302 71
445 82 172 12 289 16 345 13 19 -1 96 -5 170 -7z m-4639 -1203 c17 -31 78
-147 136 -257 166 -317 206 -370 330 -436 118 -61 139 -130 79 -249 -37 -72
-57 -80 -201 -74 -136 6 -233 -10 -442 -72 -237 -70 -423 -118 -430 -112 -9
10 33 52 192 192 160 139 215 197 215 224 0 12 -20 32 -54 55 -138 92 -231
106 -525 83 -113 -9 -207 -15 -209 -12 -3 2 29 20 71 40 102 48 127 69 127
107 0 40 -33 70 -154 138 -87 49 -95 55 -68 58 33 3 187 -34 482 -118 199 -56
389 -100 435 -100 41 0 46 65 15 207 -26 120 -60 330 -60 372 0 28 2 32 15 21
7 -6 28 -37 46 -67z"/>
<path d="M6393 6830 c-63 -13 -122 -47 -173 -100 -91 -94 -116 -195 -85 -350
45 -227 201 -814 286 -1075 50 -156 70 -197 87 -180 43 44 311 1008 358 1287
17 100 17 108 1 168 -32 112 -103 188 -216 231 -62 23 -193 33 -258 19z"/>
<path d="M4698 6146 c-130 -53 -190 -106 -237 -206 -23 -48 -26 -68 -26 -155
0 -91 3 -106 31 -165 41 -86 78 -122 220 -212 328 -208 978 -573 1072 -602 16
-6 22 -3 22 8 0 58 -441 847 -606 1083 -172 247 -308 318 -476 249z"/>
<path d="M8105 6156 c-84 -29 -114 -47 -155 -93 -115 -130 -574 -873 -701
-1137 -42 -86 -48 -116 -24 -116 53 0 882 464 1147 641 117 79 159 140 179
259 36 219 -134 446 -341 456 -38 2 -82 -2 -105 -10z"/>
<path d="M3977 4445 c-177 -68 -276 -277 -221 -466 42 -143 173 -259 294 -259
120 0 789 150 1205 272 231 67 270 90 207 122 -57 29 -712 209 -1066 292 -218
51 -355 64 -419 39z"/>
<path d="M8640 4421 c-308 -65 -933 -243 -1078 -307 -45 -20 -52 -26 -42 -38
46 -56 1140 -333 1392 -353 70 -5 82 -3 132 21 69 34 134 100 172 174 27 53
29 65 29 172 0 106 -2 119 -28 170 -34 66 -86 122 -147 158 -42 25 -55 27
-170 29 -105 2 -146 -2 -260 -26z"/>
<path d="M6400 4405 c-99 -32 -195 -134 -226 -243 -33 -112 5 -244 92 -321 64
-56 128 -76 240 -76 82 1 98 4 158 34 116 57 173 163 164 305 -14 219 -222
365 -428 301z"/>
<path d="M5750 3371 c-102 -32 -735 -392 -1015 -577 -208 -138 -252 -176 -283
-242 -23 -49 -27 -71 -27 -147 0 -76 4 -97 25 -139 74 -144 258 -247 416 -233
122 12 182 55 278 200 136 207 527 871 610 1035 34 67 46 113 29 111 -5 0 -19
-4 -33 -8z"/>
<path d="M7204 3367 c-3 -8 11 -47 31 -87 77 -153 457 -799 602 -1025 80 -123
104 -149 168 -183 46 -25 60 -27 165 -27 106 0 120 2 177 29 153 70 235 239
203 417 -18 98 -41 132 -135 202 -220 162 -1067 651 -1183 682 -14 4 -24 1
-28 -8z"/>
<path d="M6466 3020 c-62 -168 -230 -770 -301 -1080 -48 -207 -54 -296 -25
-372 30 -80 104 -159 188 -200 62 -31 74 -33 167 -33 92 0 106 3 167 32 116
55 198 161 214 274 8 60 -20 204 -111 569 -123 489 -236 869 -261 877 -6 2
-23 -28 -38 -67z"/>
</g>
</svg>
